<?xml version="1.0" encoding="UTF-8" standalone="no"?>
<svg
   xmlns:dc="http://purl.org/dc/elements/1.1/"
   xmlns:cc="http://creativecommons.org/ns#"
   xmlns:rdf="http://www.w3.org/1999/02/22-rdf-syntax-ns#"
   xmlns:svg="http://www.w3.org/2000/svg"
   xmlns="http://www.w3.org/2000/svg"
   xmlns:sodipodi="http://sodipodi.sourceforge.net/DTD/sodipodi-0.dtd"
   xmlns:inkscape="http://www.inkscape.org/namespaces/inkscape"
   width="261.84375"
   height="70.5"
   id="svg2985"
   version="1.1"
   inkscape:version="0.48.2 r9819"
   sodipodi:docname="fourPole.svg">
  <metadata
     id="metadata3043">
    <rdf:RDF>
      <cc:Work
         rdf:about="">
        <dc:format>image/svg+xml</dc:format>
        <dc:type
           rdf:resource="http://purl.org/dc/dcmitype/StillImage" />
        <dc:title></dc:title>
      </cc:Work>
    </rdf:RDF>
  </metadata>
  <sodipodi:namedview
     pagecolor="#ffffff"
     bordercolor="#666666"
     borderopacity="1"
     objecttolerance="10"
     gridtolerance="10"
     guidetolerance="10"
     inkscape:pageopacity="0"
     inkscape:pageshadow="2"
     inkscape:window-width="1366"
     inkscape:window-height="705"
     id="namedview3041"
     showgrid="false"
     inkscape:zoom="3.2500298"
     inkscape:cx="130.92188"
     inkscape:cy="35.25"
     inkscape:window-x="-4"
     inkscape:window-y="-4"
     inkscape:window-maximized="1"
     inkscape:current-layer="g3003"
     fit-margin-top="0"
     fit-margin-left="0"
     fit-margin-right="0"
     fit-margin-bottom="0"
     units="cm" />
  <desc
     id="desc2987">C:\Users\Laurent\Desktop\fourPole.dxf - scale = 2.956081</desc>
  <defs
     id="defs2989">
    <marker
       refY="0"
       refX="0"
       style="overflow:visible"
       id="DistanceX"
       orient="auto">
      <path
         style="stroke:#000000;stroke-width:0.5"
         d="M 3,-3 -3,3 M 0,-5 0,5"
         id="path2992"
         inkscape:connector-curvature="0" />
    </marker>
    <pattern
       height="8"
       width="8"
       patternUnits="userSpaceOnUse"
       y="0"
       x="0"
       id="Hatch">
      <path
         linecap="square"
         stroke="#000000"
         stroke-width="0.25"
         d="M8 4 l-4,4"
         id="path2995" />
      <path
         linecap="square"
         stroke="#000000"
         stroke-width="0.25"
         d="M6 2 l-4,4"
         id="path2997" />
      <path
         linecap="square"
         stroke="#000000"
         stroke-width="0.25"
         d="M4 0 l-4,4"
         id="path2999" />
    </pattern>
    <symbol
       id="*MODEL_SPACE" />
    <symbol
       id="*PAPER_SPACE" />
  </defs>
  <g
     inkscape:label="0"
     inkscape:groupmode="layer"
     id="g3003"
     transform="translate(0.5,-982.375)">
    <path
       style="fill:none;stroke:#000000;stroke-width:0.35143083"
       d="m -0.32428456,1052.6864 0,-70.12286 56.17195456,0 0,10.45402 7.361989,0 0,-10.45402 25.693335,0 0,23.49216 7.361985,0 0,-23.49216 30.478621,0 0,23.83446 7.36199,0 0,-23.83446 30.47862,0 0,23.49216 7.36199,0 0,-23.49216 25.69334,0 0,10.45402 7.36198,0 0,-10.45402 56.17196,0 0,70.12286 -56.17196,0 0,-10.4538 -7.36198,0 0,10.4538 -25.69334,0 0,-23.492 -7.36199,0 0,23.492 -30.47862,0 0,-23.8343 -7.36199,0 0,23.8343 -30.478621,0 0,-23.492 -7.361985,0 0,23.492 -25.693335,0 0,-10.4538 -7.361989,0 0,10.4538 -56.17195456,0 z"
       id="path3005"
       inkscape:connector-curvature="0" />
    <path
       style="fill:none;stroke:#000000;stroke-width:0.35143083"
       d="m 76.056327,1025.3955 q -7.770579,0 -7.770579,-7.7705"
       id="path3007"
       inkscape:connector-curvature="0" />
    <path
       style="fill:none;stroke:#000000;stroke-width:0.35143083"
       d="m 83.826902,1017.625 q 0,7.7705 -7.770575,7.7705"
       id="path3009"
       inkscape:connector-curvature="0" />
    <path
       style="fill:none;stroke:#000000;stroke-width:0.35143083"
       d="m 76.056327,1009.8543 q 7.770575,0 7.770575,7.7707"
       id="path3011"
       inkscape:connector-curvature="0" />
    <path
       style="fill:none;stroke:#000000;stroke-width:0.35143083"
       d="m 68.285748,1017.625 q 0,-7.7707 7.770579,-7.7707"
       id="path3013"
       inkscape:connector-curvature="0" />
    <path
       style="fill:none;stroke:#000000;stroke-width:0.35143083"
       d="m 111.50429,1025.6202 q -7.99511,0 -7.99511,-7.9952"
       id="path3015"
       inkscape:connector-curvature="0" />
    <path
       style="fill:none;stroke:#000000;stroke-width:0.35143083"
       d="m 119.4994,1017.625 q 0,7.9952 -7.99511,7.9952"
       id="path3017"
       inkscape:connector-curvature="0" />
    <path
       style="fill:none;stroke:#000000;stroke-width:0.35143083"
       d="m 111.50429,1009.6299 q 7.99511,0 7.99511,7.9951"
       id="path3019"
       inkscape:connector-curvature="0" />
    <path
       style="fill:none;stroke:#000000;stroke-width:0.35143083"
       d="m 103.50918,1017.625 q 0,-7.9951 7.99511,-7.9951"
       id="path3021"
       inkscape:connector-curvature="0" />
    <path
       style="fill:none;stroke:#000000;stroke-width:0.35143083"
       d="m 149.3449,1025.6202 q -7.99511,0 -7.99511,-7.9952"
       id="path3023"
       inkscape:connector-curvature="0" />
    <path
       style="fill:none;stroke:#000000;stroke-width:0.35143083"
       d="m 157.34001,1017.625 q 0,7.9952 -7.99511,7.9952"
       id="path3025"
       inkscape:connector-curvature="0" />
    <path
       style="fill:none;stroke:#000000;stroke-width:0.35143083"
       d="m 149.3449,1009.6299 q 7.99511,0 7.99511,7.9951"
       id="path3027"
       inkscape:connector-curvature="0" />
    <path
       style="fill:none;stroke:#000000;stroke-width:0.35143083"
       d="m 141.34979,1017.625 q 0,-7.9951 7.99511,-7.9951"
       id="path3029"
       inkscape:connector-curvature="0" />
    <path
       style="fill:none;stroke:#000000;stroke-width:0.35143083"
       d="m 184.79287,1025.3955 q -7.77057,0 -7.77057,-7.7705"
       id="path3031"
       inkscape:connector-curvature="0" />
    <path
       style="fill:none;stroke:#000000;stroke-width:0.35143083"
       d="m 192.56345,1017.625 q 0,7.7705 -7.77058,7.7705"
       id="path3033"
       inkscape:connector-curvature="0" />
    <path
       style="fill:none;stroke:#000000;stroke-width:0.35143083"
       d="m 184.79287,1009.8543 q 7.77058,0 7.77058,7.7707"
       id="path3035"
       inkscape:connector-curvature="0" />
    <path
       style="fill:none;stroke:#000000;stroke-width:0.35143083"
       d="m 177.0223,1017.625 q 0,-7.7707 7.77057,-7.7707"
       id="path3037"
       inkscape:connector-curvature="0" />
  </g>
  <g
     inkscape:label="DEFPOINTS"
     inkscape:groupmode="layer"
     id="g3039"
     transform="translate(0.5,-982.375)" />
</svg>
