<?xml version="1.0" encoding="UTF-8" standalone="no"?>
<!-- Created with Inkscape (http://www.inkscape.org/) -->

<svg xmlns:dc="http://purl.org/dc/elements/1.1/" xmlns:cc="http://creativecommons.org/ns#" xmlns:rdf="http://www.w3.org/1999/02/22-rdf-syntax-ns#" xmlns:svg="http://www.w3.org/2000/svg" xmlns="http://www.w3.org/2000/svg" xmlns:sodipodi="http://sodipodi.sourceforge.net/DTD/sodipodi-0.dtd" xmlns:inkscape="http://www.inkscape.org/namespaces/inkscape" id="svg3531" version="1.1" inkscape:version="0.48.1 " width="533.94025" height="192.98654" xml:space="preserve" sodipodi:docname="ROM.pdf"><metadata id="metadata3537"><rdf:RDF><cc:Work rdf:about=""><dc:format>image/svg+xml</dc:format><dc:type rdf:resource="http://purl.org/dc/dcmitype/StillImage" /><dc:title></dc:title></cc:Work></rdf:RDF></metadata><defs id="defs3535" /><sodipodi:namedview pagecolor="#ffffff" bordercolor="#666666" borderopacity="1" objecttolerance="10" gridtolerance="10" guidetolerance="10" inkscape:pageopacity="0" inkscape:pageshadow="2" inkscape:window-width="1366" inkscape:window-height="721" id="namedview3533" showgrid="false" inkscape:zoom="0.51389378" inkscape:cx="304.20693" inkscape:cy="63.437397" inkscape:window-x="0" inkscape:window-y="0" inkscape:window-maximized="1" inkscape:current-layer="g3539" fit-margin-top="0" fit-margin-left="0" fit-margin-right="0" fit-margin-bottom="0" /><g id="g3539" inkscape:groupmode="layer" inkscape:label="ROM" transform="matrix(1.25,0,0,-1.25,-147,195.27529)"><path d="m 194.9,108.31 14.18,0" style="fill:none;stroke:#1f497d;stroke-width:0.72000003;stroke-linecap:round;stroke-linejoin:round;stroke-miterlimit:10;stroke-opacity:1;stroke-dasharray:none" id="path3541" inkscape:connector-curvature="0" /><path d="m 194.9,101.22 14.18,0" style="fill:none;stroke:#1f497d;stroke-width:0.72000003;stroke-linecap:round;stroke-linejoin:round;stroke-miterlimit:10;stroke-opacity:1;stroke-dasharray:none" id="path3543" inkscape:connector-curvature="0" /><path d="m 324.79,103.21 c 0,0.78 -0.63,1.42 -1.41,1.42 -0.79,0 -1.42,-0.64 -1.42,-1.42 0,-0.78 0.63,-1.42 1.42,-1.42 0.78,0 1.41,0.64 1.41,1.42 z" style="fill:#7799c1;fill-opacity:1;fill-rule:evenodd;stroke:none" id="path3545" inkscape:connector-curvature="0" /><path d="m 324.79,103.21 c 0,0.78 -0.63,1.42 -1.41,1.42 -0.79,0 -1.42,-0.64 -1.42,-1.42 0,-0.78 0.63,-1.42 1.42,-1.42 0.78,0 1.41,0.64 1.41,1.42 z" style="fill:none;stroke:#1f497d;stroke-width:0.72000003;stroke-linecap:round;stroke-linejoin:round;stroke-miterlimit:10;stroke-opacity:1;stroke-dasharray:none" id="path3547" inkscape:connector-curvature="0" /><path d="m 333.3,103.21 c 0,0.78 -0.64,1.42 -1.42,1.42 -0.78,0 -1.42,-0.64 -1.42,-1.42 0,-0.78 0.64,-1.42 1.42,-1.42 0.78,0 1.42,0.64 1.42,1.42 z" style="fill:#7799c1;fill-opacity:1;fill-rule:evenodd;stroke:none" id="path3549" inkscape:connector-curvature="0" /><path d="m 333.3,103.21 c 0,0.78 -0.64,1.42 -1.42,1.42 -0.78,0 -1.42,-0.64 -1.42,-1.42 0,-0.78 0.64,-1.42 1.42,-1.42 0.78,0 1.42,0.64 1.42,1.42 z" style="fill:none;stroke:#1f497d;stroke-width:0.72000003;stroke-linecap:round;stroke-linejoin:round;stroke-miterlimit:10;stroke-opacity:1;stroke-dasharray:none" id="path3551" inkscape:connector-curvature="0" /><path d="m 341.8,103.21 c 0,0.78 -0.63,1.42 -1.42,1.42 -0.78,0 -1.41,-0.64 -1.41,-1.42 0,-0.78 0.63,-1.42 1.41,-1.42 0.79,0 1.42,0.64 1.42,1.42 z" style="fill:#7799c1;fill-opacity:1;fill-rule:evenodd;stroke:none" id="path3553" inkscape:connector-curvature="0" /><path d="m 341.8,103.21 c 0,0.78 -0.63,1.42 -1.42,1.42 -0.78,0 -1.41,-0.64 -1.41,-1.42 0,-0.78 0.63,-1.42 1.41,-1.42 0.79,0 1.42,0.64 1.42,1.42 z" style="fill:none;stroke:#1f497d;stroke-width:0.72000003;stroke-linecap:round;stroke-linejoin:round;stroke-miterlimit:10;stroke-opacity:1;stroke-dasharray:none" id="path3555" inkscape:connector-curvature="0" /><path d="m 364.48,110.07 0,-14.169" style="fill:none;stroke:#1f497d;stroke-width:0.72000003;stroke-linecap:round;stroke-linejoin:round;stroke-miterlimit:10;stroke-opacity:1;stroke-dasharray:none" id="path3557" inkscape:connector-curvature="0" /><path d="m 357.39,102.99 14.17,0" style="fill:none;stroke:#1f497d;stroke-width:0.72000003;stroke-linecap:round;stroke-linejoin:round;stroke-miterlimit:10;stroke-opacity:1;stroke-dasharray:none" id="path3559" inkscape:connector-curvature="0" /><text transform="matrix(1,0,0,-1,229.91,98.863)" id="text3561"><tspan style="font-size:23.99975967px;font-style:italic;font-variant:normal;font-weight:normal;writing-mode:lr-tb;fill:black;fill-opacity:1;fill-rule:nonzero;stroke:none;font-family:Times New Roman;-inkscape-font-specification:'Times New Roman, Italic'" x="0" y="0" id="tspan3563">ξ</tspan></text>
<text transform="matrix(1,0,0,-1,240.18,95.43)" id="text3565"><tspan style="font-size:15.59735966px;font-style:italic;font-variant:normal;font-weight:normal;writing-mode:lr-tb;fill:black;fill-opacity:1;fill-rule:nonzero;stroke:none;font-family:Times New Roman;-inkscape-font-specification:'Times New Roman, Italic'" x="0" y="0" id="tspan3567">1</tspan></text>
<text transform="matrix(1,0,0,-1,392.58,98.701)" id="text3569"><tspan style="font-size:23.99975967px;font-style:italic;font-variant:normal;font-weight:normal;writing-mode:lr-tb;fill:black;fill-opacity:1;fill-rule:nonzero;stroke:none;font-family:Times New Roman;-inkscape-font-specification:'Times New Roman, Italic'" x="0" y="0" id="tspan3571">ξ</tspan></text>
<text transform="matrix(1,0,0,-1,402.85,95.268)" id="text3573"><tspan style="font-size:15.59735966px;font-style:italic;font-variant:normal;font-weight:normal;writing-mode:lr-tb;fill:black;fill-opacity:1;fill-rule:nonzero;stroke:none;font-family:Times New Roman;-inkscape-font-specification:'Times New Roman, Italic'" x="0" y="0" id="tspan3575">P</tspan></text>
<path d="m 363.08,33.664 c 0,0.783 -0.64,1.418 -1.42,1.418 -0.78,0 -1.42,-0.635 -1.42,-1.418 0,-0.782 0.64,-1.417 1.42,-1.417 0.78,0 1.42,0.635 1.42,1.417 z" style="fill:#7799c1;fill-opacity:1;fill-rule:evenodd;stroke:none" id="path3577" inkscape:connector-curvature="0" /><path d="m 363.08,33.664 c 0,0.783 -0.64,1.418 -1.42,1.418 -0.78,0 -1.42,-0.635 -1.42,-1.418 0,-0.782 0.64,-1.417 1.42,-1.417 0.78,0 1.42,0.635 1.42,1.417 z" style="fill:none;stroke:#1f497d;stroke-width:0.72000003;stroke-linecap:round;stroke-linejoin:round;stroke-miterlimit:10;stroke-opacity:1;stroke-dasharray:none" id="path3579" inkscape:connector-curvature="0" /><path d="m 371.58,33.664 c 0,0.783 -0.63,1.418 -1.42,1.418 -0.78,0 -1.41,-0.635 -1.41,-1.418 0,-0.782 0.63,-1.417 1.41,-1.417 0.79,0 1.42,0.635 1.42,1.417 z" style="fill:#7799c1;fill-opacity:1;fill-rule:evenodd;stroke:none" id="path3581" inkscape:connector-curvature="0" /><path d="m 371.58,33.664 c 0,0.783 -0.63,1.418 -1.42,1.418 -0.78,0 -1.41,-0.635 -1.41,-1.418 0,-0.782 0.63,-1.417 1.41,-1.417 0.79,0 1.42,0.635 1.42,1.417 z" style="fill:none;stroke:#1f497d;stroke-width:0.72000003;stroke-linecap:round;stroke-linejoin:round;stroke-miterlimit:10;stroke-opacity:1;stroke-dasharray:none" id="path3583" inkscape:connector-curvature="0" /><path d="m 380.08,33.664 c 0,0.783 -0.63,1.418 -1.41,1.418 -0.79,0 -1.42,-0.635 -1.42,-1.418 0,-0.782 0.63,-1.417 1.42,-1.417 0.78,0 1.41,0.635 1.41,1.417 z" style="fill:#7799c1;fill-opacity:1;fill-rule:evenodd;stroke:none" id="path3585" inkscape:connector-curvature="0" /><path d="m 380.08,33.664 c 0,0.783 -0.63,1.418 -1.41,1.418 -0.79,0 -1.42,-0.635 -1.42,-1.418 0,-0.782 0.63,-1.417 1.42,-1.417 0.78,0 1.41,0.635 1.41,1.417 z" style="fill:none;stroke:#1f497d;stroke-width:0.72000003;stroke-linecap:round;stroke-linejoin:round;stroke-miterlimit:10;stroke-opacity:1;stroke-dasharray:none" id="path3587" inkscape:connector-curvature="0" /><path d="m 398.51,40.751 0,-14.173" style="fill:none;stroke:#1f497d;stroke-width:0.72000003;stroke-linecap:round;stroke-linejoin:round;stroke-miterlimit:10;stroke-opacity:1;stroke-dasharray:none" id="path3589" inkscape:connector-curvature="0" /><path d="m 391.42,33.664 14.18,0" style="fill:none;stroke:#1f497d;stroke-width:0.72000003;stroke-linecap:round;stroke-linejoin:round;stroke-miterlimit:10;stroke-opacity:1;stroke-dasharray:none" id="path3591" inkscape:connector-curvature="0" /><path d="m 341.82,40.751 0,-14.173" style="fill:none;stroke:#1f497d;stroke-width:0.72000003;stroke-linecap:round;stroke-linejoin:round;stroke-miterlimit:10;stroke-opacity:1;stroke-dasharray:none" id="path3593" inkscape:connector-curvature="0" /><path d="m 334.73,33.664 14.17,0" style="fill:none;stroke:#1f497d;stroke-width:0.72000003;stroke-linecap:round;stroke-linejoin:round;stroke-miterlimit:10;stroke-opacity:1;stroke-dasharray:none" id="path3595" inkscape:connector-curvature="0" /><path d="m 194.94,37.208 14.17,0" style="fill:none;stroke:#1f497d;stroke-width:0.72000003;stroke-linecap:round;stroke-linejoin:round;stroke-miterlimit:10;stroke-opacity:1;stroke-dasharray:none" id="path3617" inkscape:connector-curvature="0" /><path d="m 194.94,30.121 14.17,0" style="fill:none;stroke:#1f497d;stroke-width:0.72000003;stroke-linecap:round;stroke-linejoin:round;stroke-miterlimit:10;stroke-opacity:1;stroke-dasharray:none" id="path3619" inkscape:connector-curvature="0" /><text transform="matrix(1,0,0,-1,125.59,27.928)" id="text3621"><tspan style="font-size:23.99975967px;font-style:italic;font-variant:normal;font-weight:bold;writing-mode:lr-tb;fill:black;fill-opacity:1;fill-rule:nonzero;stroke:none;font-family:Times New Roman;-inkscape-font-specification:'Times New Roman,BoldItalic'" x="0" y="0" id="tspan3623">E</tspan></text>
<text transform="matrix(1,0,0,-1,141.6,24.494)" id="text3625"><tspan style="font-size:15.59735966px;font-variant:normal;font-weight:normal;writing-mode:lr-tb;fill:black;fill-opacity:1;fill-rule:nonzero;stroke:none;font-family:Times New Roman;-inkscape-font-specification:Times New" x="0" y="0" id="tspan3627">{</tspan></text>
<text transform="matrix(1,0,0,-1,149.09,24.494)" id="text3629"><tspan style="font-size:15.59735966px;font-style:italic;font-variant:normal;font-weight:normal;writing-mode:lr-tb;fill:black;fill-opacity:1;fill-rule:nonzero;stroke:none;font-family:Times New Roman;-inkscape-font-specification:'Times New Roman, Italic'" x="0" y="0" id="tspan3631">θ</tspan></text>
<text transform="matrix(1,0,0,-1,156.75,24.494)" id="text3633"><tspan style="font-size:15.59735966px;font-style:italic;font-variant:normal;font-weight:normal;writing-mode:lr-tb;fill:black;fill-opacity:1;fill-rule:nonzero;stroke:none;font-family:Times New Roman;-inkscape-font-specification:'Times New Roman, Italic'" x="0 3.8993039" y="0" sodipodi:role="line" id="tspan3635">, </tspan></text>
<text transform="matrix(1,0,0,-1,164.55,24.494)" id="text3637"><tspan style="font-size:15.59735966px;font-style:italic;font-variant:normal;font-weight:normal;writing-mode:lr-tb;fill:black;fill-opacity:1;fill-rule:nonzero;stroke:none;font-family:Times New Roman;-inkscape-font-specification:'Times New Roman, Italic'" x="0" y="0" id="tspan3639">ϕ</tspan></text>
<text transform="matrix(1,0,0,-1,172.62,24.494)" id="text3641"><tspan style="font-size:15.59735966px;font-variant:normal;font-weight:normal;writing-mode:lr-tb;fill:black;fill-opacity:1;fill-rule:nonzero;stroke:none;font-family:Times New Roman;-inkscape-font-specification:Times New" x="0" y="0" id="tspan3643">}</tspan></text>
<text transform="matrix(1,0,0,-1,131.77,31.98)" id="text3645"><tspan style="font-size:23.99975967px;font-variant:normal;font-weight:normal;writing-mode:lr-tb;fill:black;fill-opacity:1;fill-rule:nonzero;stroke:none;font-family:Times New Roman;-inkscape-font-specification:Times New" x="0" y="0" id="tspan3647">ˇ</tspan></text>
<text transform="matrix(1,0,0,-1,165.85,133.11)" id="text3649"><tspan style="font-size:23.99975967px;font-variant:normal;font-weight:bold;writing-mode:lr-tb;fill:black;fill-opacity:1;fill-rule:nonzero;stroke:none;font-family:Times New Roman;-inkscape-font-specification:'Times New Roman, Bold'" x="0" y="0" id="tspan3651">e</tspan></text>
<path d="m 167.28,86.529 8.504,0 0,35.433 -8.504,0 0,-35.433 z" style="fill:#da9896;fill-opacity:1;fill-rule:evenodd;stroke:none" id="path3653" inkscape:connector-curvature="0" /><path d="m 167.28,86.529 8.504,0 0,35.433 -8.504,0 0,-35.433 z" style="fill:none;stroke:#c05552;stroke-width:0.72000003;stroke-linecap:round;stroke-linejoin:round;stroke-miterlimit:10;stroke-opacity:1;stroke-dasharray:none" id="path3655" inkscape:connector-curvature="0" /><path d="m 298.79,110.22 0,-14.169" style="fill:none;stroke:#1f497d;stroke-width:0.72000003;stroke-linecap:round;stroke-linejoin:round;stroke-miterlimit:10;stroke-opacity:1;stroke-dasharray:none" id="path3657" inkscape:connector-curvature="0" /><path d="m 291.7,103.14 14.17,0" style="fill:none;stroke:#1f497d;stroke-width:0.72000003;stroke-linecap:round;stroke-linejoin:round;stroke-miterlimit:10;stroke-opacity:1;stroke-dasharray:none" id="path3659" inkscape:connector-curvature="0" /><path d="m 117.96,86.756 35.15,0 0,35.206 -35.15,0 0,-35.206 z" style="fill:#7799c1;fill-opacity:1;fill-rule:evenodd;stroke:none" id="path3661" inkscape:connector-curvature="0" /><path d="m 117.96,86.756 35.15,0 0,35.206 -35.15,0 0,-35.206 z" style="fill:none;stroke:#1f497d;stroke-width:0.72000003;stroke-linecap:round;stroke-linejoin:round;stroke-miterlimit:10;stroke-opacity:1;stroke-dasharray:none" id="path3663" inkscape:connector-curvature="0" /><text transform="matrix(1,0,0,-1,126.87,97.159)" id="text3665"><tspan style="font-size:23.99975967px;font-variant:normal;font-weight:bold;writing-mode:lr-tb;fill:black;fill-opacity:1;fill-rule:nonzero;stroke:none;font-family:Times New Roman;-inkscape-font-specification:'Times New Roman, Bold'" x="0" y="0" id="tspan3667">A</tspan></text>
<text transform="matrix(1,0,0,-1,128.76,111.85)" id="text3669"><tspan style="font-size:23.99975967px;font-variant:normal;font-weight:bold;writing-mode:lr-tb;fill:black;fill-opacity:1;fill-rule:nonzero;stroke:none;font-family:Times New Roman;-inkscape-font-specification:'Times New Roman, Bold'" x="0" y="0" id="tspan3671">~</tspan></text>
<text transform="matrix(1,0,0,-1,254.99,132.45)" id="text3673"><tspan style="font-size:23.99975967px;font-variant:normal;font-weight:bold;writing-mode:lr-tb;fill:black;fill-opacity:1;fill-rule:nonzero;stroke:none;font-family:Times New Roman;-inkscape-font-specification:'Times New Roman, Bold'" x="0" y="0" id="tspan3675">b</tspan></text>
<text transform="matrix(1,0,0,-1,268.34,129.01)" id="text3677"><tspan style="font-size:15.59735966px;font-style:italic;font-variant:normal;font-weight:normal;writing-mode:lr-tb;fill:black;fill-opacity:1;fill-rule:nonzero;stroke:none;font-family:Times New Roman;-inkscape-font-specification:'Times New Roman, Italic'" x="0" y="0" id="tspan3679">1</tspan></text>
<path d="m 259.9,86.529 8.5039,0 0,35.433 -8.5039,0 0,-35.433 z" style="fill:#7799c1;fill-opacity:1;fill-rule:evenodd;stroke:none" id="path3681" inkscape:connector-curvature="0" /><path d="m 259.9,86.529 8.5039,0 0,35.433 -8.5039,0 0,-35.433 z" style="fill:none;stroke:#1f497d;stroke-width:0.72000003;stroke-linecap:round;stroke-linejoin:round;stroke-miterlimit:10;stroke-opacity:1;stroke-dasharray:none" id="path3683" inkscape:connector-curvature="0" /><text transform="matrix(1,0,0,-1,248.15,147.9)" id="text3685"><tspan style="font-size:23.99975967px;font-variant:normal;font-weight:bold;writing-mode:lr-tb;fill:black;fill-opacity:1;fill-rule:nonzero;stroke:none;font-family:Times New Roman;-inkscape-font-specification:'Times New Roman, Bold'" x="0" y="0" id="tspan3687">~</tspan></text>
<text transform="matrix(1,0,0,-1,420.32,132.45)" id="text3689"><tspan style="font-size:23.99975967px;font-variant:normal;font-weight:bold;writing-mode:lr-tb;fill:black;fill-opacity:1;fill-rule:nonzero;stroke:none;font-family:Times New Roman;-inkscape-font-specification:'Times New Roman, Bold'" x="0" y="0" id="tspan3691">b</tspan></text>
<text transform="matrix(1,0,0,-1,433.67,129.01)" id="text3693"><tspan style="font-size:15.59735966px;font-style:italic;font-variant:normal;font-weight:normal;writing-mode:lr-tb;fill:black;fill-opacity:1;fill-rule:nonzero;stroke:none;font-family:Times New Roman;-inkscape-font-specification:'Times New Roman, Italic'" x="0" y="0" id="tspan3695">P</tspan></text>
<path d="m 426.09,86.529 8.5039,0 0,35.433 -8.5039,0 0,-35.433 z" style="fill:#7799c1;fill-opacity:1;fill-rule:evenodd;stroke:none" id="path3697" inkscape:connector-curvature="0" /><path d="m 426.09,86.529 8.5039,0 0,35.433 -8.5039,0 0,-35.433 z" style="fill:none;stroke:#1f497d;stroke-width:0.72000003;stroke-linecap:round;stroke-linejoin:round;stroke-miterlimit:10;stroke-opacity:1;stroke-dasharray:none" id="path3699" inkscape:connector-curvature="0" /><text transform="matrix(1,0,0,-1,414.34,147.9)" id="text3701"><tspan style="font-size:23.99975967px;font-variant:normal;font-weight:bold;writing-mode:lr-tb;fill:black;fill-opacity:1;fill-rule:nonzero;stroke:none;font-family:Times New Roman;-inkscape-font-specification:'Times New Roman, Bold'" x="0" y="0" id="tspan3703">~</tspan></text>
<text transform="matrix(1,0,0,-1,165.62,143.11)" id="text3705"><tspan style="font-size:23.99975967px;font-variant:normal;font-weight:bold;writing-mode:lr-tb;fill:black;fill-opacity:1;fill-rule:nonzero;stroke:none;font-family:Times New Roman;-inkscape-font-specification:'Times New Roman, Bold'" x="0" y="0" id="tspan3707">~</tspan></text>
<path d="m 463.79,29.827 35.433,0 0,8.5039 -35.433,0 0,-8.5039 z" style="fill:#7799c1;fill-opacity:1;fill-rule:evenodd;stroke:none" id="path3709" inkscape:connector-curvature="0" /><path d="m 463.79,29.827 35.433,0 0,8.5039 -35.433,0 0,-8.5039 z" style="fill:none;stroke:#1f497d;stroke-width:0.72000003;stroke-linecap:round;stroke-linejoin:round;stroke-miterlimit:10;stroke-opacity:1;stroke-dasharray:none" id="path3711" inkscape:connector-curvature="0" /><path d="m 279.54,29.827 35.433,0 0,8.5039 -35.433,0 0,-8.5039 z" style="fill:#7799c1;fill-opacity:1;fill-rule:evenodd;stroke:none" id="path3749" inkscape:connector-curvature="0" /><path d="m 279.54,29.827 35.433,0 0,8.5039 -35.433,0 0,-8.5039 z" style="fill:none;stroke:#1f497d;stroke-width:0.72000003;stroke-linecap:round;stroke-linejoin:round;stroke-miterlimit:10;stroke-opacity:1;stroke-dasharray:none" id="path3751" inkscape:connector-curvature="0" /><text transform="matrix(1,0,0,-1,532.07,48.77)" id="text3793"><tspan style="font-size:23.99975967px;font-variant:normal;font-weight:bold;writing-mode:lr-tb;fill:black;fill-opacity:1;fill-rule:nonzero;stroke:none;font-family:Times New Roman;-inkscape-font-specification:'Times New Roman, Bold'" x="0" y="0" id="tspan3795">e</tspan></text>
<path d="m 533.51,2.191 8.504,0 0,35.433 -8.504,0 0,-35.433 z" style="fill:#da9896;fill-opacity:1;fill-rule:evenodd;stroke:none" id="path3797" inkscape:connector-curvature="0" /><path d="m 533.51,2.191 8.504,0 0,35.433 -8.504,0 0,-35.433 z" style="fill:none;stroke:#c05552;stroke-width:0.72000003;stroke-linecap:round;stroke-linejoin:round;stroke-miterlimit:10;stroke-opacity:1;stroke-dasharray:none" id="path3799" inkscape:connector-curvature="0" /><text transform="matrix(1,0,0,-1,531.85,58.77)" id="text3801"><tspan style="font-size:23.99975967px;font-variant:normal;font-weight:bold;writing-mode:lr-tb;fill:black;fill-opacity:1;fill-rule:nonzero;stroke:none;font-family:Times New Roman;-inkscape-font-specification:'Times New Roman, Bold'" x="0" y="0" id="tspan3803">~</tspan></text>
<text transform="matrix(1,0,0,-1,151.94,32.229)" id="text3817"><tspan style="font-size:12.00024033px;font-variant:normal;font-weight:normal;writing-mode:lr-tb;fill:black;fill-opacity:1;fill-rule:nonzero;stroke:none;font-family:Times New Roman;-inkscape-font-specification:Times New" x="0" y="0" id="tspan3819">^</tspan></text>
<text transform="matrix(1,0,0,-1,166.11,32.229)" id="text3821"><tspan style="font-size:12.00024033px;font-variant:normal;font-weight:normal;writing-mode:lr-tb;fill:black;fill-opacity:1;fill-rule:nonzero;stroke:none;font-family:Times New Roman;-inkscape-font-specification:Times New" x="0" y="0" id="tspan3823">^</tspan></text>
<g id="g3355-0" transform="translate(-233.98785,-171.79153)" /><g id="g4002" transform="translate(-233.98172,-143.90715)"><g id="g4711"><text transform="scale(1,-1)" id="text16-4-3-1" x="501.2901" y="-205.14583" style="font-size:12px"><tspan id="tspan18-0-6-9" y="-205.14583" x="501.2901" style="font-size:13.99967957px;font-style:italic;font-variant:normal;font-weight:normal;writing-mode:lr-tb;fill:black;fill-opacity:1;fill-rule:nonzero;stroke:none;font-family:Times New Roman;-inkscape-font-specification:'Times New Roman, Italic'">H</tspan></text>
<text transform="scale(1,-1)" id="text20-9-2-5" x="490.47009" y="-195.31584" style="font-size:12px"><tspan id="tspan22-4-4-1" y="-195.31584" x="490.47009" style="font-size:23.99975967px;font-variant:normal;font-weight:bold;writing-mode:lr-tb;fill:black;fill-opacity:1;fill-rule:nonzero;stroke:none;font-family:Times New Roman;-inkscape-font-specification:'Times New Roman, Bold'">c</tspan></text>
<text transform="scale(1,-1)" style="font-size:12px" y="-191.88582" x="532.92004" id="text28-2-8-7"><tspan style="font-size:15.59736061px;font-variant:normal;font-weight:normal;writing-mode:lr-tb;fill:black;fill-opacity:1;fill-rule:nonzero;stroke:none;font-family:Times New Roman;-inkscape-font-specification:Times New" x="532.92004" y="-191.88582" id="tspan30-4-1-4">{</tspan></text>
<text transform="scale(1,-1)" style="font-size:12px" y="-191.88582" x="540.41003" id="text32-5-21-0"><tspan style="font-size:15.59736061px;font-style:italic;font-variant:normal;font-weight:normal;writing-mode:lr-tb;fill:black;fill-opacity:1;fill-rule:nonzero;stroke:none;font-family:Times New Roman;-inkscape-font-specification:'Times New Roman, Italic'" x="540.41003" y="-191.88582" id="tspan34-5-4-39">θ</tspan></text>
<text transform="scale(1,-1)" style="font-size:12px" y="-191.88582" x="548.07007" id="text36-1-9-0"><tspan style="font-size:15.59736061px;font-style:italic;font-variant:normal;font-weight:normal;writing-mode:lr-tb;fill:black;fill-opacity:1;fill-rule:nonzero;stroke:none;font-family:Times New Roman;-inkscape-font-specification:'Times New Roman, Italic'" x="548.07007 551.96936" y="-191.88582" sodipodi:role="line" id="tspan38-7-8-8">,</tspan></text>
<text transform="scale(1,-1)" style="font-size:12px" y="-191.88582" x="555.87006" id="text40-1-24-3"><tspan style="font-size:15.59736061px;font-style:italic;font-variant:normal;font-weight:normal;writing-mode:lr-tb;fill:black;fill-opacity:1;fill-rule:nonzero;stroke:none;font-family:Times New Roman;-inkscape-font-specification:'Times New Roman, Italic'" x="555.87006" y="-191.88582" id="tspan42-1-5-0">ϕ</tspan></text>
<text transform="scale(1,-1)" style="font-size:12px" y="-191.88582" x="563.94" id="text44-5-2-8"><tspan style="font-size:15.59736061px;font-variant:normal;font-weight:normal;writing-mode:lr-tb;fill:black;fill-opacity:1;fill-rule:nonzero;stroke:none;font-family:Times New Roman;-inkscape-font-specification:Times New" x="563.94" y="-191.88582" id="tspan46-2-9-1">}</tspan></text>
<text transform="scale(1,-1)" style="font-size:12px" y="-200.11583" x="543.12006" id="text192-7-9-4"><tspan style="font-size:12.00024033px;font-variant:normal;font-weight:normal;writing-mode:lr-tb;fill:black;fill-opacity:1;fill-rule:nonzero;stroke:none;font-family:Times New Roman;-inkscape-font-specification:Times New" x="543.12006" y="-200.11583" id="tspan194-6-8-3">^</tspan></text>
<text transform="scale(1,-1)" style="font-size:12px" y="-200.11583" x="557.29004" id="text196-1-3-4"><tspan style="font-size:12.00024033px;font-variant:normal;font-weight:normal;writing-mode:lr-tb;fill:black;fill-opacity:1;fill-rule:nonzero;stroke:none;font-family:Times New Roman;-inkscape-font-specification:Times New" x="557.29004" y="-200.11583" id="tspan198-4-8-2">^</tspan></text>
<text transform="scale(1,-1)" style="font-size:12px" y="-185.2411" x="512.43091" id="text32-5-2-6-6"><tspan style="font-size:9.60000038px;font-style:italic;font-variant:normal;font-weight:normal;writing-mode:lr-tb;fill:black;fill-opacity:1;fill-rule:nonzero;stroke:none;font-family:Times New Roman;-inkscape-font-specification:'Times New Roman, Italic'" x="512.43091" y="-185.2411" id="tspan34-5-3-9-4">θ</tspan></text>
<text transform="scale(1,-1)" style="font-size:12px" y="-187.48894" x="529.70673" id="text40-1-2-8-6"><tspan style="font-size:9.60000038px;font-style:italic;font-variant:normal;font-weight:normal;writing-mode:lr-tb;fill:black;fill-opacity:1;fill-rule:nonzero;stroke:none;font-family:Times New Roman;-inkscape-font-specification:'Times New Roman, Italic'" x="529.70673" y="-187.48894" id="tspan42-1-2-6-5">ϕ</tspan></text>
<text transform="scale(1,-1)" style="font-size:12px" y="-204.61772" x="489.40546" id="text188-7-4"><tspan style="font-size:23.99975967px;font-variant:normal;font-weight:bold;writing-mode:lr-tb;fill:black;fill-opacity:1;fill-rule:nonzero;stroke:none;font-family:Times New Roman;-inkscape-font-specification:'Times New Roman, Bold'" x="489.40546" y="-204.61772" id="tspan190-8-8">~</tspan></text>
<text transform="scale(1,-1)" id="text3609-1-2" x="515.3089" y="-192.09074" style="font-size:12px"><tspan id="tspan3611-5-0" y="-192.09074" x="515.3089" style="font-size:15.59736061px;font-style:italic;font-variant:normal;font-weight:normal;writing-mode:lr-tb;fill:black;fill-opacity:1;fill-rule:nonzero;stroke:none;font-family:Times New Roman;-inkscape-font-specification:'Times New Roman, Italic'">-</tspan></text>
<text transform="scale(1,-1)" id="text3613-9-9" x="519.526" y="-192.09074" style="font-size:12px"><tspan id="tspan3615-1-8" y="-192.09074" x="519.526" style="font-size:15.59736061px;font-style:italic;font-variant:normal;font-weight:normal;writing-mode:lr-tb;fill:black;fill-opacity:1;fill-rule:nonzero;stroke:none;font-family:Times New Roman;-inkscape-font-specification:'Times New Roman, Italic'">Q</tspan></text>
<text transform="scale(1,-1)" id="text3609-11-2" x="499.39563" y="-192.04747" style="font-size:12px"><tspan id="tspan3611-0-1" y="-192.04747" x="499.39563" style="font-size:15.59736061px;font-style:italic;font-variant:normal;font-weight:normal;writing-mode:lr-tb;fill:black;fill-opacity:1;fill-rule:nonzero;stroke:none;font-family:Times New Roman;-inkscape-font-specification:'Times New Roman, Italic'">-</tspan></text>
<text transform="scale(1,-1)" id="text3613-8-4" x="503.56937" y="-192.04747" style="font-size:12px"><tspan id="tspan3615-12-0" y="-192.04747" x="503.56937" style="font-size:15.59736061px;font-style:italic;font-variant:normal;font-weight:normal;writing-mode:lr-tb;fill:black;fill-opacity:1;fill-rule:nonzero;stroke:none;font-family:Times New Roman;-inkscape-font-specification:'Times New Roman, Italic'">Q</tspan></text>
</g><g id="g4695"><text id="text3605" transform="matrix(1,0,0,-1,461.18172,174.72215)"><tspan id="tspan3607" y="0" x="0" style="font-size:23.99975967px;font-style:italic;font-variant:normal;font-weight:normal;writing-mode:lr-tb;fill:black;fill-opacity:1;fill-rule:nonzero;stroke:none;font-family:Times New Roman;-inkscape-font-specification:'Times New Roman, Italic'">η</tspan></text>
<text transform="scale(1,-1)" style="font-size:12px" y="-159.47417" x="481.70636" id="text32-5-2-6-1"><tspan style="font-size:9.60000038px;font-style:italic;font-variant:normal;font-weight:normal;writing-mode:lr-tb;fill:black;fill-opacity:1;fill-rule:nonzero;stroke:none;font-family:Times New Roman;-inkscape-font-specification:'Times New Roman, Italic'" x="481.70636" y="-159.47417" id="tspan34-5-3-9-0">θ</tspan></text>
<text transform="scale(1,-1)" style="font-size:12px" y="-161.722" x="498.98224" id="text40-1-2-8-8"><tspan style="font-size:9.60000038px;font-style:italic;font-variant:normal;font-weight:normal;writing-mode:lr-tb;fill:black;fill-opacity:1;fill-rule:nonzero;stroke:none;font-family:Times New Roman;-inkscape-font-specification:'Times New Roman, Italic'" x="498.98224" y="-161.722" id="tspan42-1-2-6-3">ϕ</tspan></text>
<text transform="scale(1,-1)" id="text3609-1-3" x="484.58438" y="-166.32381" style="font-size:12px"><tspan id="tspan3611-5-1" y="-166.32381" x="484.58438" style="font-size:15.59736061px;font-style:italic;font-variant:normal;font-weight:normal;writing-mode:lr-tb;fill:black;fill-opacity:1;fill-rule:nonzero;stroke:none;font-family:Times New Roman;-inkscape-font-specification:'Times New Roman, Italic'">-</tspan></text>
<text transform="scale(1,-1)" id="text3613-9-3" x="488.80148" y="-166.32381" style="font-size:12px"><tspan id="tspan3615-1-2" y="-166.32381" x="488.80148" style="font-size:15.59736061px;font-style:italic;font-variant:normal;font-weight:normal;writing-mode:lr-tb;fill:black;fill-opacity:1;fill-rule:nonzero;stroke:none;font-family:Times New Roman;-inkscape-font-specification:'Times New Roman, Italic'">Q</tspan></text>
<text transform="scale(1,-1)" id="text3609-11-1" x="468.67108" y="-166.28053" style="font-size:12px"><tspan id="tspan3611-0-4" y="-166.28053" x="468.67108" style="font-size:15.59736061px;font-style:italic;font-variant:normal;font-weight:normal;writing-mode:lr-tb;fill:black;fill-opacity:1;fill-rule:nonzero;stroke:none;font-family:Times New Roman;-inkscape-font-specification:'Times New Roman, Italic'">-</tspan></text>
<text transform="scale(1,-1)" id="text3613-8-9" x="472.84482" y="-166.28053" style="font-size:12px"><tspan id="tspan3615-12-6" y="-166.28053" x="472.84482" style="font-size:15.59736061px;font-style:italic;font-variant:normal;font-weight:normal;writing-mode:lr-tb;fill:black;fill-opacity:1;fill-rule:nonzero;stroke:none;font-family:Times New Roman;-inkscape-font-specification:'Times New Roman, Italic'">Q</tspan></text>
</g></g><g id="g5699"><g transform="translate(-0.51342468,-37.681607)" id="g3500-2"><g id="g3355-0-8" transform="translate(-0.00613436,-27.884384)" /><g id="g4002-5"><text style="font-size:12px" y="-126.52948" x="453.25864" id="text16-4-3-6" transform="matrix(1,0,0,-1,-0.006136,-27.884386)"><tspan style="font-size:13.99967957px;font-style:italic;font-variant:normal;font-weight:normal;writing-mode:lr-tb;fill:black;fill-opacity:1;fill-rule:nonzero;stroke:none;font-family:Times New Roman;-inkscape-font-specification:'Times New Roman, Italic'" x="453.25864" y="-126.52948" id="tspan18-0-6-0">H</tspan></text>
<text style="font-size:12px" y="-116.69949" x="442.43863" id="text20-9-2-1" transform="matrix(1,0,0,-1,-0.006136,-27.884386)"><tspan style="font-size:23.99975967px;font-variant:normal;font-weight:bold;writing-mode:lr-tb;fill:black;fill-opacity:1;fill-rule:nonzero;stroke:none;font-family:Times New Roman;-inkscape-font-specification:'Times New Roman, Bold'" x="442.43863" y="-116.69949" id="tspan22-4-4-8">c</tspan></text>
<text transform="matrix(1,0,0,-1,-0.006136,-27.884386)" id="text28-2-8-9" x="481.68863" y="-113.26947" style="font-size:12px"><tspan id="tspan30-4-1-2" y="-113.26947" x="481.68863" style="font-size:15.59736061px;font-variant:normal;font-weight:normal;writing-mode:lr-tb;fill:black;fill-opacity:1;fill-rule:nonzero;stroke:none;font-family:Times New Roman;-inkscape-font-specification:Times New">{</tspan></text>
<text transform="matrix(1,0,0,-1,-0.006136,-27.884386)" id="text32-5-21-7" x="489.17862" y="-113.26947" style="font-size:12px"><tspan id="tspan34-5-4-3" y="-113.26947" x="489.17862" style="font-size:15.59736061px;font-style:italic;font-variant:normal;font-weight:normal;writing-mode:lr-tb;fill:black;fill-opacity:1;fill-rule:nonzero;stroke:none;font-family:Times New Roman;-inkscape-font-specification:'Times New Roman, Italic'">θ</tspan></text>
<text transform="matrix(1,0,0,-1,-0.006136,-27.884386)" id="text36-1-9-8" x="496.83862" y="-113.26947" style="font-size:12px"><tspan id="tspan38-7-8-4" sodipodi:role="line" y="-113.26947" x="496.83862 500.73792" style="font-size:15.59736061px;font-style:italic;font-variant:normal;font-weight:normal;writing-mode:lr-tb;fill:black;fill-opacity:1;fill-rule:nonzero;stroke:none;font-family:Times New Roman;-inkscape-font-specification:'Times New Roman, Italic'">,</tspan></text>
<text transform="matrix(1,0,0,-1,-0.006136,-27.884386)" id="text40-1-24-2" x="504.63861" y="-113.26947" style="font-size:12px"><tspan id="tspan42-1-5-6" y="-113.26947" x="504.63861" style="font-size:15.59736061px;font-style:italic;font-variant:normal;font-weight:normal;writing-mode:lr-tb;fill:black;fill-opacity:1;fill-rule:nonzero;stroke:none;font-family:Times New Roman;-inkscape-font-specification:'Times New Roman, Italic'">ϕ</tspan></text>
<text transform="matrix(1,0,0,-1,-0.006136,-27.884386)" id="text44-5-2-7" x="512.70862" y="-113.26947" style="font-size:12px"><tspan id="tspan46-2-9-6" y="-113.26947" x="512.70862" style="font-size:15.59736061px;font-variant:normal;font-weight:normal;writing-mode:lr-tb;fill:black;fill-opacity:1;fill-rule:nonzero;stroke:none;font-family:Times New Roman;-inkscape-font-specification:Times New">}</tspan></text>
<text transform="matrix(1,0,0,-1,-0.006136,-27.884386)" id="text192-7-9-3" x="491.88861" y="-121.49948" style="font-size:12px"><tspan id="tspan194-6-8-0" y="-121.49948" x="491.88861" style="font-size:12.00024033px;font-variant:normal;font-weight:normal;writing-mode:lr-tb;fill:black;fill-opacity:1;fill-rule:nonzero;stroke:none;font-family:Times New Roman;-inkscape-font-specification:Times New">^</tspan></text>
<text transform="matrix(1,0,0,-1,-0.006136,-27.884386)" id="text196-1-3-2" x="506.05862" y="-121.49948" style="font-size:12px"><tspan id="tspan198-4-8-9" y="-121.49948" x="506.05862" style="font-size:12.00024033px;font-variant:normal;font-weight:normal;writing-mode:lr-tb;fill:black;fill-opacity:1;fill-rule:nonzero;stroke:none;font-family:Times New Roman;-inkscape-font-specification:Times New">^</tspan></text>
<text id="text32-5-2-6-3" x="460.18317" y="-106.62475" style="font-size:12px" transform="matrix(1,0,0,-1,-0.006136,-27.884386)"><tspan id="tspan34-5-3-9-9" y="-106.62475" x="460.18317" style="font-size:9.60000038px;font-style:italic;font-variant:normal;font-weight:normal;writing-mode:lr-tb;fill:black;fill-opacity:1;fill-rule:nonzero;stroke:none;font-family:Times New Roman;-inkscape-font-specification:'Times New Roman, Italic'">θ</tspan></text>
<text id="text40-1-2-8-9" x="474.84277" y="-108.87257" style="font-size:12px" transform="matrix(1,0,0,-1,-0.006136,-27.884386)"><tspan id="tspan42-1-2-6-2" y="-108.87257" x="474.84277" style="font-size:9.60000038px;font-style:italic;font-variant:normal;font-weight:normal;writing-mode:lr-tb;fill:black;fill-opacity:1;fill-rule:nonzero;stroke:none;font-family:Times New Roman;-inkscape-font-specification:'Times New Roman, Italic'">ϕ</tspan></text>
<text style="font-size:12px" y="-112.56541" x="451.07074" id="text3721-4-2" transform="matrix(1,0,0,-1,-0.006136,-27.884386)"><tspan style="font-size:15.59736061px;font-style:italic;font-variant:normal;font-weight:normal;writing-mode:lr-tb;fill:black;fill-opacity:1;fill-rule:nonzero;stroke:none;font-family:Times New Roman;-inkscape-font-specification:'Times New Roman, Italic'" x="451.07074" y="-112.56541" id="tspan3723-0-2">Q</tspan></text>
<text style="font-size:12px" y="-112.4278" x="464.98566" id="text3721-9-9" transform="matrix(1,0,0,-1,-0.006136,-27.884386)"><tspan style="font-size:15.59736061px;font-style:italic;font-variant:normal;font-weight:normal;writing-mode:lr-tb;fill:black;fill-opacity:1;fill-rule:nonzero;stroke:none;font-family:Times New Roman;-inkscape-font-specification:'Times New Roman, Italic'" x="464.98566" y="-112.4278" id="tspan3723-1-4">Q</tspan></text>
<text transform="scale(1,-1)" id="text188-7-9" x="441.36786" y="-98.116982" style="font-size:12px"><tspan id="tspan190-8-4" y="-98.116982" x="441.36786" style="font-size:23.99975967px;font-variant:normal;font-weight:bold;writing-mode:lr-tb;fill:black;fill-opacity:1;fill-rule:nonzero;stroke:none;font-family:Times New Roman;-inkscape-font-specification:'Times New Roman, Bold'">~</tspan></text>
</g></g></g><g id="g4919"><text y="-30.636999" x="413.71997" id="text3597" transform="scale(1,-1)"><tspan id="tspan3599" y="-30.636999" x="413.71997" style="font-size:23.99975967px;font-style:italic;font-variant:normal;font-weight:normal;writing-mode:lr-tb;fill:black;fill-opacity:1;fill-rule:nonzero;stroke:none;font-family:Times New Roman;-inkscape-font-specification:'Times New Roman, Italic'">η</tspan></text>
<text transform="scale(1,-1)" id="text32-5-2-6-3-6" x="431.01352" y="-17.259897" style="font-size:12px"><tspan id="tspan34-5-3-9-9-1" y="-17.259897" x="431.01352" style="font-size:9.60000038px;font-style:italic;font-variant:normal;font-weight:normal;writing-mode:lr-tb;fill:black;fill-opacity:1;fill-rule:nonzero;stroke:none;font-family:Times New Roman;-inkscape-font-specification:'Times New Roman, Italic'">θ</tspan></text>
<text transform="scale(1,-1)" id="text40-1-2-8-9-0" x="445.67313" y="-19.507715" style="font-size:12px"><tspan id="tspan42-1-2-6-2-5" y="-19.507715" x="445.67313" style="font-size:9.60000038px;font-style:italic;font-variant:normal;font-weight:normal;writing-mode:lr-tb;fill:black;fill-opacity:1;fill-rule:nonzero;stroke:none;font-family:Times New Roman;-inkscape-font-specification:'Times New Roman, Italic'">ϕ</tspan></text>
<text transform="scale(1,-1)" style="font-size:12px" y="-23.200556" x="421.90109" id="text3721-4-2-5"><tspan style="font-size:15.59736061px;font-style:italic;font-variant:normal;font-weight:normal;writing-mode:lr-tb;fill:black;fill-opacity:1;fill-rule:nonzero;stroke:none;font-family:Times New Roman;-inkscape-font-specification:'Times New Roman, Italic'" x="421.90109" y="-23.200556" id="tspan3723-0-2-3">Q</tspan></text>
<text transform="scale(1,-1)" style="font-size:12px" y="-23.062952" x="435.81601" id="text3721-9-9-3"><tspan style="font-size:15.59736061px;font-style:italic;font-variant:normal;font-weight:normal;writing-mode:lr-tb;fill:black;fill-opacity:1;fill-rule:nonzero;stroke:none;font-family:Times New Roman;-inkscape-font-specification:'Times New Roman, Italic'" x="435.81601" y="-23.062952" id="tspan3723-1-4-1">Q</tspan></text>
</g></g></svg>